<svg width="654" height="584" viewBox="0 0 654 584" fill="none" xmlns="http://www.w3.org/2000/svg">
<rect width="654" height="584" fill="white"/>
<ellipse cx="334" cy="325.5" rx="145" ry="141.5" fill="black"/>
<ellipse cx="189.5" cy="169" rx="79.5" ry="80" fill="black"/>
<ellipse cx="478.5" cy="169" rx="79.5" ry="80" fill="black"/>
<ellipse cx="302" cy="292.5" rx="74" ry="85.5" fill="#FFD596"/>
<ellipse cx="376" cy="292.5" rx="74" ry="85.5" fill="#FFD596"/>
<ellipse cx="334" cy="399" rx="145" ry="91" fill="#FFD596"/>
<ellipse cx="309" cy="308" rx="18" ry="46" fill="black"/>
<ellipse cx="309" cy="308.5" rx="17" ry="44.5" fill="white"/>
<ellipse cx="312.5" cy="339" rx="8.5" ry="9" fill="black"/>
<circle cx="309" cy="333" r="3" fill="white"/>
<ellipse cx="358" cy="308" rx="18" ry="46" fill="black"/>
<ellipse cx="358" cy="308.5" rx="17" ry="44.5" fill="white"/>
<ellipse cx="354.5" cy="339" rx="8.5" ry="9" fill="black"/>
<ellipse cx="357.5" cy="333" rx="3.5" ry="3" fill="white"/>
<ellipse cx="334" cy="375.5" rx="54" ry="30.5" fill="black"/>
<ellipse cx="334" cy="390" rx="75" ry="42" fill="#FFD596"/>
<ellipse cx="334.5" cy="375.5" rx="45.5" ry="26.5" fill="black"/>
<ellipse cx="333" cy="365" rx="21" ry="13" fill="white"/>
<path d="M216.158 395.506C216.158 395.506 250.847 440 330.99 440C411.134 440 453 395.506 453 395.506M203 405.718C214.607 399.942 218.915 394.016 222.139 378" stroke="black" stroke-width="2"/>
<path d="M277 433.289C319.737 504.787 343.75 502.342 386.453 433.289C342.481 443.379 318.66 443.345 277 433.289Z" fill="black"/>
<path d="M447.129 386C450.572 395.995 453.98 399.791 462 404.188M331.727 470.393C330.489 469.105 329.304 467.946 328.158 466.915M328.158 466.915C319.245 458.899 312.606 458.601 300.794 465.301C323.169 489.278 335.786 491.995 358.495 466.915C348.069 457.974 341.394 458.177 328.158 466.915ZM277 433.289C319.737 504.787 343.75 502.342 386.453 433.289C342.481 443.379 318.66 443.345 277 433.289Z" stroke="black" stroke-width="2"/>
<path d="M325.529 465.607C317.39 458.259 310.107 458.451 297 463.465C322.626 489.825 336.052 493.654 357 465.607C347.505 456.505 340.433 457.096 325.529 465.607Z" fill="#F27070"/>
<path d="M329.673 469.891C328.248 468.248 326.877 466.824 325.529 465.607M325.529 465.607C317.39 458.259 310.107 458.451 297 463.465C322.626 489.825 336.052 493.654 357 465.607C347.505 456.505 340.433 457.096 325.529 465.607Z" stroke="black" stroke-width="2"/>
</svg>
